# AST/ASF file generated using VICON BodyLanguage
# -----------------------------------------------
:version 1.10
:name VICON
:units
  mass 1.0
  length 0.45
  angle deg
:documentation
   .ast/.asf automatically generated from VICON data using
   VICON BodyBuilder and BodyLanguage model FoxedUp or BRILLIANT.MOD
:root
   order TX TY TZ RX RY RZ
   axis XYZ
   position 0 0 0  
   orientation 0 0 0 
:bonedata
  begin
     id 1 
     name lhipjoint
     direction 0.673618 -0.716094 0.182886 
     length 2.63917 
     axis 0 0 0  XYZ
  end
  begin
     id 2 
     name lfemur
     direction 0.34202 -0.939693 0  
     length 7.41015  
     axis 0 0 20  XYZ
    dof rx ry rz
    limits (-160.0 20.0)
           (-70.0 70.0)
           (-60.0 70.0)
  end
  begin
     id 3 
     name ltibia
     direction 0.34202 -0.939693 0   
     length 7.92551   
     axis 0 0 20   XYZ
    dof rx
    limits (-10.0 170.0)
  end
  begin
     id 4 
     name lfoot
     direction 0.0786834 -0.216181 0.973178   
     length 2.28657   
     axis -90 7.62852e-016 20   XYZ
    dof rx rz
    limits (-45.0 90.0)
           (-70.0 20.0)
  end
  begin
     id 5 
     name ltoes
     direction 1.53562e-011 -4.21928e-011 1   
     length 1.14687   
     axis -90 7.62852e-016 20   XYZ
    dof rx
    limits (-90.0 20.0)
  end
  begin
     id 6 
     name rhipjoint
     direction -0.630561 -0.752002 0.192056   
     length 2.51315  
     axis 0 0 0  XYZ 
  end
  begin
     id 7 
     name rfemur
     direction -0.34202 -0.939693 0   
     length 7.61317   
     axis 0 0 -20   XYZ
    dof rx ry rz
    limits (-160.0 20.0)
           (-70.0 70.0)
           (-70.0 60.0)
  end
  begin
     id 8 
     name rtibia
     direction -0.34202 -0.939693 0   
     length 7.99175   
     axis 0 0 -20   XYZ
    dof rx
    limits (-10.0 170.0)
 end
 begin
     id 9 
     name rfoot
     direction -0.109419 -0.300625 0.947445   
     length 2.34126  
     axis -90 -7.62852e-016 -20   XYZ
    dof rx rz
    limits (-45.0 90.0)
           (-20.0 70.0)
  end
  begin
     id 10 
     name rtoes
     direction -1.53603e-011 -4.21913e-011 1   
     length 1.16381   
     axis -90 -7.62852e-016 -20   XYZ
    dof rx
    limits (-90.0 20.0)
  end
  begin
     id 11 
     name lowerback
     direction 0.0168077 0.993836 -0.109583   
     length 2.02862   
     axis 0 0 0   XYZ
    dof rx ry rz
    limits (-20.0 45.0)
           (-30.0 30.0)
           (-30.0 30.0)
  end
  begin
     id 12 
     name upperback
     direction 0.0170634 0.999844 0.00461437   
     length 2.03044   
     axis 0 0 0   XYZ
    dof rx ry rz
    limits (-20.0 45.0)
           (-30.0 30.0)
           (-30.0 30.0)
  end
  begin
     id 13 
     name thorax
     direction 0.00813305 0.998421 0.0555897   
     length 2.05762   
     axis 0 0 0   XYZ
    dof rx ry rz
    limits (-20.0 45.0)
           (-30.0 30.0)
           (-30.0 30.0)
  end
  begin
     id 14 
     name lowerneck
     direction -0.00127547 0.992596 0.121455   
     length 1.7173   
     axis 0 0 0   XYZ
    dof rx ry rz
    limits (-20.0 45.0)
           (-30.0 30.0)
           (-30.0 30.0)
  end
  begin
     id 15 
     name upperneck
     direction 0.0144921 0.991716 -0.127628   
     length 1.73779   
     axis 0 0 0   XYZ
    dof rx ry rz
    limits (-20.0 45.0)
           (-30.0 30.0)
           (-30.0 30.0)
  end
  begin
     id 16
     name head
     direction 0.00161449 0.998411 -0.0563246  
     length 1.74399  
     axis 0 0 0   XYZ
    dof rx ry rz
    limits (-20.0 45.0)
           (-30.0 30.0)
           (-30.0 30.0)
  end
  begin
     id 17 
     name lclavicle
     direction 0.952642 0.284773 -0.106664  
     length 3.53079  
     axis 0 0 0   XYZ
    dof ry rz
    limits (-20.0 10.0)
           (0.0 20.0)
  end
  begin
     id 18 
     name lhumerus
     direction 1 -4.48971e-011 1.90155e-027   
     length 5.06507   
     axis 180 -30 -90   XYZ
    dof rx ry rz
    limits (-60.0 90.0)
           (-90.0 90.0)
           (-90.0 90.0)
  end
  begin
     id 19
     name lradius
     direction 1 -4.48978e-011 1.0994e-027   
     length 3.60196   
     axis 180 -30 -90   XYZ
    dof rx
    limits (-10.0 170.0)
  end
  begin
     id 20
     name lwrist
     direction 1 -4.48947e-011 2.56952e-028   
     length 1.80098   
     axis -5.12785e-016 90 90   XYZ
    dof ry
    limits (-180.0 0.0)
 end
  begin
     id 21 
     name lhand
     direction 1 -4.49009e-011 5.13905e-028   
     length 0.450346   
     axis -3.27915e-016 90 90   XYZ
    dof rx rz
    limits (-90.0 90.0)
           (-45.0 45.0)
  end
  begin
     id 22 
     name lfingers
     direction 1 -4.48975e-011 1.02781e-027   
     length 0.363081   
     axis -6.5583e-016 90 90   XYZ
    dof rx
    limits (0.0 90.0)
  end
  begin
     id 23
     name lthumb
     direction 0.707107 -6.34941e-011 0.707107   
     length 0.521313   
     axis -90 45 2.85299e-015   XYZ
    dof rx rz
    limits (-45.0 45.0)
           (-45.0 45.0)
  end
  begin
     id 24 
     name rclavicle
     direction -0.955889 0.219434 -0.195256   
     length 3.66318  
     axis 0 0 0   XYZ 
    dof ry rz
    limits (-10.0 20.0)
           (-20.0 0.0)
  end
  begin
     id 25 
     name rhumerus
     direction -1 -4.48973e-011 1.65154e-027  
     length 5.36394   
     axis 180 30 90   XYZ
    dof rx ry rz
    limits (-90.0 60.0)
           (-90.0 90.0)
           (-90.0 90.0)
  end
  begin
     id 26 
     name rradius
     direction -1 -4.4898e-011 3.26231e-028   
     length 3.58035   
     axis 180 30 90   XYZ
    dof rx
    limits (-10.0 170.0)
  end
  begin
     id 27 
     name rwrist
     direction -1 -4.4894e-011 2.56952e-028   
     length 1.79017   
     axis -5.12785e-016 -90 -90   XYZ
    dof ry
    limits (-180.0 0.0)
  end
  begin
     id 28
     name rhand
     direction -1 -4.48999e-011 5.13905e-028   
     length 0.663747   
     axis -3.27915e-016 -90 -90   XYZ
    dof rx rz
    limits (-90.0 90.0)
           (-45.0 45.0)
  end
  begin
     id 29
     name rfingers
     direction -1 -4.49025e-011 1.02781e-027   
     length 0.53513   
     axis -6.5583e-016 -90 -90   XYZ
    dof rx
    limits (0.0 90.0)
  end
  begin
     id 30
     name rthumb
     direction -0.707107 -6.34891e-011 0.707107   
     length 0.768342   
     axis -90 -45 -2.85299e-015   XYZ
    dof rx rz
    limits (-45.0 45.0)
           (-45.0 45.0)
  end
:hierarchy
  begin
    root lhipjoint rhipjoint lowerback
    lhipjoint lfemur
    lfemur ltibia
    ltibia lfoot
    lfoot ltoes
    rhipjoint rfemur
    rfemur rtibia
    rtibia rfoot
    rfoot rtoes
    lowerback upperback
    upperback thorax
    thorax lowerneck lclavicle rclavicle
    lowerneck upperneck
    upperneck head
    lclavicle lhumerus
    lhumerus lradius
    lradius lwrist
    lwrist lhand lthumb
    lhand lfingers
    rclavicle rhumerus
    rhumerus rradius
    rradius rwrist
    rwrist rhand rthumb
    rhand rfingers
  end

#!OML:ASF F:\VICON\USERDATA\INSTALL\rory3\rory3.ASF
:FULLY-SPECIFIED
:DEGREES
63
root 4.92041 17.8471 -9.62119 -1.76898 -1.49061 2.07155
lowerback 11.0107 -0.647567 -3.21957
upperback 0.545087 -1.18268 1.38664
thorax -5.51463 -0.484186 3.45702
lowerneck -16.9873 -2.90011 -2.25144
upperneck 21.2032 -3.34438 -0.364615
head 9.54134 -1.78296 -0.191162
rclavicle 1.06847e-014 9.14409e-015
rhumerus -32.6404 -20.3622 -76.6303
rradius 26.3737
rwrist 3.27048
rhand -19.9132 20.3321
rfingers 7.12502
rthumb 6.42363 -9.55051
lclavicle 1.06847e-014 9.14409e-015
lhumerus -29.4144 -5.14647 82.7029
lradius 31.9183
lwrist 6.69498
lhand -25.3775 29.2997
lfingers 7.12502
lthumb 1.14695 59.2764
rfemur -33.3575 -1.28317 19.7944
rtibia 44.7592
rfoot -8.77439 -5.90135
rtoes 4.72392
lfemur 1.481 -0.515696 -28.111
ltibia 23.5127
lfoot -18.09 2.04544
ltoes 0.670772
64
root 4.91395 17.8457 -9.44651 -1.59782 -1.37556 2.23671
lowerback 10.9194 -0.69622 -3.38929
upperback 0.52087 -1.26702 1.36761
thorax -5.47892 -0.522141 3.54401
lowerneck -16.7401 -3.03186 -2.32118
upperneck 20.9358 -3.53062 -0.298837
head 9.40644 -1.86791 -0.174657
rclavicle -8.44835e-015 3.97569e-015
rhumerus -32.7185 -20.6877 -76.4047
rradius 25.9332
rwrist 3.65695
rhand -20.9835 19.2717
rfingers 7.12502
rthumb 5.3903 -10.6398
lclavicle -8.44835e-015 3.97569e-015
lhumerus -29.3259 -5.5847 82.6303
lradius 32.5
lwrist 7.07468
lhand -25.0021 29.4739
lfingers 7.12502
lthumb 1.50955 59.4483
rfemur -33.4592 -1.10119 19.6011
rtibia 41.7186
rfoot -7.46075 -6.46057
rtoes 0.413291
lfemur 2.37131 -0.656297 -28.3494
ltibia 22.6596
lfoot -17.9996 2.25811
ltoes 0.447379
65
root 4.90454 17.8365 -9.27675 -1.48265 -1.20512 2.34355
lowerback 11.1445 -0.753796 -3.53468
upperback 0.437649 -1.37041 1.3572
thorax -5.6812 -0.563053 3.63899
lowerneck -17.1696 -3.0377 -2.22446
upperneck 21.3049 -3.55145 -0.315775
head 9.61308 -1.87091 -0.210217
rclavicle 1.63997e-015 -1.98785e-015
rhumerus -32.9775 -20.7962 -76.3308
rradius 25.9414
rwrist 3.81622
rhand -21.335 18.6423
rfingers 7.12502
rthumb 5.0509 -11.2775
lclavicle 1.63997e-015 -1.98785e-015
lhumerus -29.2684 -5.85508 82.5082
lradius 33.0377
lwrist 7.17836
lhand -25.7457 28.2714
lfingers 7.12502
lthumb 0.791364 58.2497
rfemur -33.4327 -0.852763 19.431
rtibia 38.5983
rfoot -6.48635 -7.09048
rtoes -3.12506
lfemur 3.30756 -0.543116 -28.4379
ltibia 21.821
lfoot -17.8485 2.2069
ltoes -0.680268
66
root 4.89206 17.8196 -9.10218 -1.3297 -1.043 2.64457
lowerback 11.3805 -0.714856 -3.85798
upperback 0.310332 -1.37594 1.25997
thorax -5.94318 -0.549257 3.7296
lowerneck -17.4989 -3.05075 -2.07028
upperneck 21.5388 -3.60493 -0.318329
head 9.75377 -1.8823 -0.251729
rclavicle 1.98785e-016 -6.75868e-015
rhumerus -33.3333 -20.8615 -76.2623
rradius 26.0939
rwrist 3.7159
rhand -20.5531 19.8026
rfingers 7.12502
rthumb 5.80587 -10.0978
lclavicle 1.98785e-016 -6.75868e-015
lhumerus -29.1105 -6.45834 82.4943
lradius 33.3655
lwrist 7.60545
lhand -27.333 24.8508
lfingers 7.12502
lthumb -0.741709 54.8293
rfemur -33.2609 -0.289548 18.8392
rtibia 35.4624
rfoot -6.67042 -7.93128
rtoes -2.67637
lfemur 4.17203 -0.335323 -28.7229
ltibia 20.9771
lfoot -17.725 2.2213
ltoes 1.21764
67
root 4.88129 17.8161 -8.92146 -1.03019 -0.934997 2.80502
lowerback 10.8453 -0.74864 -3.88585
upperback 0.396957 -1.41192 1.10901
thorax -5.55077 -0.580116 3.57468
lowerneck -17.282 -3.12523 -1.95936
upperneck 21.1658 -3.76692 -0.217733
head 9.58265 -1.93729 -0.248944
rclavicle -2.03754e-015 6.75868e-015
rhumerus -33.2592 -21.1482 -76.4807
rradius 26.1679
rwrist 3.60214
rhand -19.0926 21.092
rfingers 7.12502
rthumb 7.21577 -8.76499
lclavicle -2.03754e-015 6.75868e-015
lhumerus -28.6041 -7.00175 82.2724
lradius 33.484
lwrist 7.94003
lhand -27.8795 22.4007
lfingers 7.12502
lthumb -1.26955 52.3766
rfemur -33.1102 0.655607 18.2355
rtibia 32.3451
rfoot -7.08242 -8.94653
rtoes -2.45726
lfemur 4.86014 -0.294671 -28.8738
ltibia 20.1717
lfoot -17.6341 2.12483
ltoes 1.47214
68
root 4.86856 17.8145 -8.7399 -0.717264 -0.748029 2.91949
lowerback 10.5172 -0.855764 -4.1138
upperback 0.329817 -1.56707 1.16456
thorax -5.41627 -0.652518 3.777
lowerneck -17.311 -3.1238 -1.926
upperneck 21.2308 -3.73401 -0.383439
head 9.60647 -1.93845 -0.308645
rclavicle -1.73937e-015 -6.75868e-015
rhumerus -33.2999 -20.7038 -76.7032
rradius 26.4989
rwrist 2.99708
rhand -18.6844 20.5404
rfingers 7.12502
rthumb 7.60973 -9.30274
lclavicle -1.73937e-015 -6.75868e-015
lhumerus -28.3364 -7.03097 82.2111
lradius 33.6103
lwrist 7.98405
lhand -27.8077 23.1696
lfingers 7.12502
lthumb -1.20019 53.146
rfemur -32.983 1.74116 17.5846
rtibia 29.3007
rfoot -7.49267 -10.1362
rtoes -2.78883
lfemur 5.60998 -0.198773 -28.9193
ltibia 19.3581
lfoot -17.6303 1.80924
ltoes 0.919946
69
root 4.8534 17.8041 -8.55932 -0.668613 -0.594967 2.98284
lowerback 10.4852 -0.956756 -4.30955
upperback 0.334622 -1.7197 1.23238
thorax -5.37125 -0.723304 3.9803
lowerneck -17.3334 -3.07511 -1.8824
upperneck 21.2065 -3.66399 -0.440336
head 9.59938 -1.90902 -0.326294
rclavicle 4.3832e-014 -4.37326e-015
rhumerus -33.4323 -20.2365 -76.8659
rradius 26.6513
rwrist 2.53037
rhand -18.805 20.8361
rfingers 7.12502
rthumb 7.49341 -9.01113
lclavicle 4.3832e-014 -4.37326e-015
lhumerus -28.2584 -6.92725 82.0693
lradius 34.0855
lwrist 7.84284
lhand -27.4188 24.4378
lfingers 7.12502
lthumb -0.824567 54.4159
rfemur -32.5678 2.92364 16.9399
rtibia 26.2829
rfoot -9.18312 -11.4722
rtoes 1.55024
lfemur 6.61252 -0.152716 -28.914
ltibia 18.629
lfoot -17.6122 1.54995
ltoes -0.579318
70
root 4.83601 17.7984 -8.37964 -0.522255 -0.389827 2.96714
lowerback 10.3267 -1.05146 -4.35665
upperback 0.359153 -1.84182 1.27262
thorax -5.24151 -0.786172 4.0608
lowerneck -17.1558 -3.09253 -1.93867
upperneck 20.9068 -3.68094 -0.414469
head 9.46328 -1.91893 -0.303781
rclavicle 6.95746e-016 1.19271e-015
rhumerus -33.4042 -20.5623 -76.7235
rradius 26.3141
rwrist 2.98696
rhand -19.1982 21.3535
rfingers 7.12502
rthumb 7.11382 -8.50694
lclavicle 6.95746e-016 1.19271e-015
lhumerus -28.0464 -6.90668 81.9001
lradius 34.4335
lwrist 7.87135
lhand -26.7602 22.8772
lfingers 7.12502
lthumb -0.188485 52.8569
rfemur -32.201 4.32053 16.2326
rtibia 23.3554
rfoot -9.75176 -12.7914
rtoes 1.51241
lfemur 7.42569 -0.14931 -28.7851
ltibia 17.9795
lfoot -17.4389 1.32383
ltoes 0.122137
71
root 4.81603 17.7882 -8.19676 -0.354486 -0.0869379 3.008
lowerback 10.143 -1.11963 -4.49083
upperback 0.451932 -1.93627 1.31455
thorax -5.02546 -0.837392 4.18532
lowerneck -17.4151 -3.17284 -2.03731
upperneck 20.9155 -3.75368 -0.432626
head 9.51661 -1.96162 -0.308081
rclavicle 2.81777e-014 2.18663e-014
rhumerus -33.2778 -21.4725 -76.3403
rradius 25.8444
rwrist 4.1789
rhand -20.1269 20.4205
rfingers 7.12502
rthumb 6.21732 -9.46827
lclavicle 2.81777e-014 2.18663e-014
lhumerus -27.4699 -7.0776 81.8413
lradius 34.3949
lwrist 8.21827
lhand -26.4172 22.1372
lfingers 7.12502
lthumb 0.142834 52.1169
rfemur -31.8603 5.80865 15.3648
rtibia 20.6219
rfoot -10.7207 -14.3014
rtoes 2.77478
lfemur 8.16643 -0.231909 -28.6973
ltibia 17.386
lfoot -17.132 0.999046
ltoes -0.242541
72
root 4.79631 17.7792 -8.00896 -0.401418 0.0625946 2.85688
lowerback 10.1723 -1.10544 -4.37729
upperback 0.573732 -1.90292 1.32495
thorax -4.92038 -0.828826 4.12557
lowerneck -17.7913 -3.25049 -1.89056
upperneck 21.0435 -3.88307 -0.478584
head 9.62746 -2.01369 -0.373673
rclavicle -1.93318e-014 -5.96354e-015
rhumerus -33.329 -22.5496 -75.9082
rradius 25.371
rwrist 5.29574
rhand -19.7217 21.3483
rfingers 7.12502
rthumb 6.60849 -8.52857
lclavicle -1.93318e-014 -5.96354e-015
lhumerus -27.0198 -7.41096 81.743
lradius 34.4347
lwrist 8.39902
lhand -26.5504 24.5898
lfingers 7.12502
lthumb 0.0141706 54.5695
rfemur -31.3551 7.39038 14.7405
rtibia 18.2546
rfoot -11.9844 -15.8641
rtoes 1.98735
lfemur 9.19388 -0.380134 -28.4519
ltibia 16.8544
lfoot -17.2747 0.759707
ltoes -0.698363
73
root 4.77439 17.7743 -7.81757 -0.317481 0.453508 2.78574
lowerback 10.1677 -1.22531 -4.37167
upperback 0.511093 -2.06179 1.33723
thorax -4.96721 -0.90468 4.15819
lowerneck -17.8785 -3.20243 -1.82468
upperneck 21.1558 -3.85674 -0.384822
head 9.68341 -1.98484 -0.35139
rclavicle -1.19271e-015 9.93923e-015
rhumerus -33.4362 -21.5148 -76.604
rradius 26.0271
rwrist 3.45224
rhand -19.4017 20.3513
rfingers 7.12502
rthumb 6.91739 -9.51564
lclavicle -1.19271e-015 9.93923e-015
lhumerus -27.0063 -7.66782 81.6289
lradius 34.5691
lwrist 8.681
lhand -26.9829 26.1667
lfingers 7.12502
lthumb -0.403547 56.1461
rfemur -31.0252 8.86891 13.9822
rtibia 16.4382
rfoot -12.919 -17.6132
rtoes 0.0710653
lfemur 10.0357 -0.728151 -28.2415
ltibia 16.4001
lfoot -17.428 0.296787
ltoes -2.22176
74
root 4.75828 17.7612 -7.62703 -0.203913 0.888943 2.93278
lowerback 10.0932 -1.39506 -4.53653
upperback 0.442765 -2.30401 1.3447
thorax -4.96587 -1.01924 4.29076
lowerneck -17.9999 -3.12133 -1.89236
upperneck 21.4056 -3.73209 -0.349808
head 9.79585 -1.92799 -0.31628
rclavicle -1.13804e-014 -1.98785e-015
rhumerus -33.6957 -21.0896 -76.6823
rradius 26.184
rwrist 2.87864
rhand -18.8926 20.9631
rfingers 7.12502
rthumb 7.40881 -8.88715
lclavicle -1.13804e-014 -1.98785e-015
lhumerus -26.9604 -7.61552 81.6089
lradius 34.592
lwrist 8.73989
lhand -27.6023 26.9534
lfingers 7.12502
lthumb -1.0018 56.9308
rfemur -30.7608 9.46317 13.3604
rtibia 15.1445
rfoot -13.7203 -18.3736
rtoes -0.276397
lfemur 10.6928 -0.937371 -28.2319
ltibia 16.1258
lfoot -17.1112 -0.0926223
ltoes -3.70303
75
root 4.74151 17.7405 -7.43791 -0.151121 1.03923 3.09934
lowerback 10.028 -1.48942 -4.85533
upperback 0.388707 -2.46021 1.42001
thorax -4.95338 -1.0877 4.57009
lowerneck -17.7444 -3.05447 -2.07945
upperneck 21.3506 -3.59901 -0.318603
head 9.73291 -1.87915 -0.251538
rclavicle 1.75427e-014 1.15295e-014
rhumerus -33.8368 -20.9982 -76.4869
rradius 25.9575
rwrist 3.02434
rhand -18.7271 21.5329
rfingers 7.12502
rthumb 7.56857 -8.31172
lclavicle 1.75427e-014 1.15295e-014
lhumerus -26.859 -7.20502 81.5522
lradius 34.6048
lwrist 8.24696
lhand -27.8283 28.5455
lfingers 7.12502
lthumb -1.22008 58.5218
rfemur -30.6033 9.28138 13.2368
rtibia 14.4976
rfoot -14.863 -18.1326
rtoes 1.09318
lfemur 11.2778 -0.975953 -28.2744
ltibia 16.1342
lfoot -16.6674 -0.307469
ltoes -5.04458
76
root 4.72204 17.7229 -7.25141 -0.053038 1.19743 3.03447
lowerback 10.1017 -1.57017 -4.8905
upperback 0.300151 -2.57241 1.50469
thorax -5.07002 -1.13558 4.70025
lowerneck -17.6978 -3.03299 -2.12623
upperneck 21.382 -3.54787 -0.35706
head 9.73527 -1.86408 -0.249856
rclavicle -3.46382e-014 -6.36111e-015
rhumerus -33.8893 -21.0649 -76.4022
rradius 25.7719
rwrist 3.24168
rhand -18.6135 21.6834
rfingers 7.12502
rthumb 7.67823 -8.15724
lclavicle -3.46382e-014 -6.36111e-015
lhumerus -26.8408 -7.11987 81.4905
lradius 34.7729
lwrist 8.07124
lhand -27.0103 30.8394
lfingers 7.12502
lthumb -0.429991 60.8187
rfemur -30.6666 8.53123 13.6881
rtibia 14.5457
rfoot -13.0163 -17.4766
rtoes -1.78111
lfemur 11.7093 -1.17142 -28.0914
ltibia 16.4252
lfoot -16.7568 -0.513222
ltoes -7.5421
